<?xml version="1.0" standalone="no"?>
<!DOCTYPE svg PUBLIC "-//W3C//DTD SVG 20010904//EN"
 "http://www.w3.org/TR/2001/REC-SVG-20010904/DTD/svg10.dtd">
<svg version="1.0" xmlns="http://www.w3.org/2000/svg"
 width="700.000000pt" height="700.000000pt" viewBox="0 0 700.000000 700.000000"
 preserveAspectRatio="xMidYMid meet">
<metadata>
Created by potrace 1.14, written by Peter Selinger 2001-2017
</metadata>
<g transform="translate(0.000000,700.000000) scale(0.100000,-0.100000)"
fill="#000000" stroke="none">
<path d="M3059 6968 c0 -51 -1 -350 0 -380 l1 -27 439 1 439 1 -1 218 0 219
-438 0 -439 0 -1 -32z"/>
<path d="M2653 6562 l-33 -3 0 -435 c0 -406 -1 -434 -17 -435 -10 0 -107 0
-215 0 -109 1 -198 -2 -199 -7 -3 -25 -4 -409 -1 -419 3 -10 56 -13 221 -13
l216 0 0 218 0 217 213 1 c117 1 216 5 219 8 8 7 8 854 1 861 -6 6 -353 12
-405 7z"/>
<path d="M3947 6558 c-9 -5 -12 -123 -12 -438 l0 -430 52 0 c29 -1 109 -1 178
-1 69 0 144 0 168 1 l42 0 -1 433 c-1 237 -2 434 -3 437 -2 8 -412 6 -424 -2z"/>
<path d="M1309 6115 c-1 -5 -1 -103 -1 -217 l0 -208 -32 0 c-17 -1 -115 -1
-218 0 l-188 0 0 -438 0 -439 220 0 220 0 0 51 c1 28 1 223 1 433 0 349 2 383
17 387 9 3 203 5 431 5 227 0 416 2 418 5 8 7 5 418 -3 425 -11 11 -864 8
-865 -4z"/>
<path d="M4822 6121 c-5 -4 -8 -99 -9 -214 0 -114 -2 -210 -5 -213 -3 -3 -102
-6 -219 -7 l-214 -2 -2 -217 -2 -218 220 0 219 0 0 219 0 220 398 0 c218 0
416 0 439 1 l42 0 -2 218 -2 217 -428 1 c-235 0 -431 -2 -435 -5z"/>
<path d="M5689 5682 c-1 -4 -2 -200 -3 -437 l-1 -430 -218 0 c-119 0 -217 -2
-218 -5 -1 -8 -1 -371 0 -405 l1 -30 211 0 c133 0 213 -3 217 -10 4 -5 7 -104
7 -219 l0 -209 429 -1 c235 -1 432 2 438 5 10 6 15 410 5 426 -3 5 -200 8
-439 8 l-433 0 2 214 c1 127 5 216 11 220 6 3 103 6 216 5 113 0 207 2 207 5
1 3 3 200 4 438 l1 432 -218 0 c-120 0 -219 -3 -219 -7z"/>
<path d="M1313 4805 c-2 -6 -5 -105 -6 -220 l-2 -210 -432 0 c-426 0 -433 0
-433 -20 -1 -11 -1 -109 -1 -217 -1 -143 -4 -198 -12 -199 -7 0 -105 -1 -220
-1 l-207 -1 0 -437 0 -437 219 0 219 -1 0 429 c0 235 3 432 6 437 3 5 194 9
431 9 234 0 428 3 431 6 3 3 6 101 7 219 l2 213 210 1 c116 1 213 2 218 3 4 0
7 98 7 216 0 165 -3 215 -12 216 -86 7 -421 2 -425 -6z"/>
<path d="M3060 4598 l0 -218 -220 0 -220 0 0 -220 0 -220 -219 0 -218 0 1
-437 1 -438 215 -1 215 -1 5 -218 5 -219 215 -1 215 0 3 -217 2 -218 439 0
438 0 1 183 c0 100 0 198 1 218 l1 36 198 1 c108 0 206 1 217 1 20 1 20 7 20
209 -1 114 0 212 2 217 2 6 82 9 218 8 l215 -1 0 439 0 439 -217 0 -218 0 0
218 0 217 -219 5 -220 5 2 195 c0 107 -1 204 -3 215 -4 20 -12 20 -440 20
l-435 1 0 -218z"/>
<path d="M6565 3932 c-3 -3 -5 -200 -5 -438 l0 -432 220 0 220 0 0 438 0 437
-215 0 c-118 0 -217 -2 -220 -5z"/>
<path d="M444 3058 c-8 -12 -7 -418 1 -426 3 -4 200 -7 436 -7 l429 0 0 220 0
220 -431 0 c-237 0 -433 -3 -435 -7z"/>
<path d="M5686 3060 c-1 -3 -2 -102 -1 -220 l1 -216 -214 1 c-117 0 -216 -2
-220 -5 -4 -3 -7 -101 -7 -218 0 -205 1 -212 20 -213 11 -1 111 -2 222 -3
l201 -1 0 212 c0 117 3 216 5 220 3 5 197 8 432 8 242 0 429 4 432 9 8 11 6
417 -2 424 -7 7 -866 9 -869 2z"/>
<path d="M1314 2615 c-2 -5 -2 -104 -1 -220 l2 -209 200 -1 c110 0 208 2 218
4 16 3 17 20 15 220 l-3 216 -214 0 c-136 0 -215 -3 -217 -10z"/>
<path d="M876 2181 c-2 -3 -2 -199 -2 -436 l1 -430 214 -2 c117 -1 215 -4 218
-6 2 -2 4 -99 3 -215 0 -158 3 -211 13 -214 6 -3 203 -4 437 -4 l425 1 0 218
0 217 65 1 c36 0 132 0 213 0 137 0 148 1 155 19 5 14 8 333 3 408 -1 9 -52
12 -219 12 l-218 0 0 -217 0 -218 -437 -2 -437 -1 0 437 0 437 -216 0 c-118 0
-216 -2 -218 -5z"/>
<path d="M5691 2171 c-4 -9 -7 -205 -6 -436 l0 -420 220 0 220 0 0 435 0 435
-213 1 c-184 0 -214 -2 -221 -15z"/>
<path d="M4372 1530 l0 -219 215 1 c136 0 218 -4 222 -10 3 -6 6 -104 5 -219
l-1 -209 436 1 436 0 2 218 3 217 -58 1 c-31 0 -229 0 -439 0 l-383 0 0 219 0
220 -219 0 -219 0 0 -220z"/>
<path d="M2710 1312 l-85 -3 0 -434 c0 -380 2 -435 15 -436 21 0 358 0 393 0
l27 1 0 435 c0 239 -3 435 -7 435 -79 3 -278 4 -343 2z"/>
<path d="M3965 1310 l-31 -5 1 -428 c0 -236 -4 -431 -8 -434 -5 -3 -200 -6
-435 -7 l-427 -1 -1 -217 -1 -218 437 0 438 0 0 203 c0 111 0 209 1 219 1 14
23 16 218 16 l218 0 0 432 c0 310 -3 434 -11 437 -17 6 -364 9 -399 3z"/>
</g>
</svg>
