<svg width="48" height="48" viewBox="0 0 48 48" fill="none" xmlns="http://www.w3.org/2000/svg">
<path fill-rule="evenodd" clip-rule="evenodd" d="M23.98 4H21.4759V6.50416H18.9717V11.4992H16.4675V8.995H11.4725V11.4992H8.96836V16.4942H11.4725V18.9983H6.50416V21.5025H4V26.4975H6.50416V29.0017H11.4992V31.5058H8.995V36.5008H11.4992V39.005H16.4942V36.5008H18.9983V41.4958H21.5025V44H26.4975V41.4958H29.0017V36.5008H31.5058V39.005H36.5008V36.5008H39.005V31.5058H36.5008V29.0017H41.4958V26.4975H44V21.5025H41.4958V18.9983H36.5008V16.4942H39.005V11.4992H36.5008V8.995H31.5058V11.4992H29.0017V6.50416H26.4975V4H23.9933H23.98ZM26.4842 6.50416V11.4992H28.9883V14.0033H31.4925V11.4992H36.4875V16.4942H33.9834V18.9983H36.4875V21.5025H41.4825V26.4975H36.4875V29.0017H33.9834V31.5058H36.4875V36.5008H31.4925V33.9967H28.9883V36.5008H26.4842V41.4958H21.4892V36.5008H18.985V33.9967H16.4809V36.5008H11.4858V31.5058H13.99V29.0017H11.4858V26.4975H6.50416V21.5025H11.4992V18.9983H14.0033V16.4942H11.4992V11.4992H16.4942V14.0033H18.9983V11.4992H21.5025V6.50416H26.4975H26.4842ZM21.4892 16.4942H26.4842V18.9983H21.4892V16.4942ZM18.985 21.4892V18.985H21.4892V21.4892H18.985ZM18.985 26.4842H16.4809V21.4892H18.985V26.4842ZM21.4892 28.9883H18.985V26.4842H21.4892V28.9883ZM26.4842 28.9883V31.4925H21.4892V28.9883H26.4842ZM28.9883 26.4842V28.9883H26.4842V26.4842H28.9883ZM28.9883 21.4892H31.4925V26.4842H28.9883V21.4892ZM28.9883 21.4892V18.985H26.4842V21.4892H28.9883Z" fill="#E0763B"/>
<path d="M26.4716 16.4941H21.4766V31.4792H26.4716V16.4941Z" fill="#E0763B"/>
<path d="M28.9744 18.985H18.9844V28.975H28.9744V18.985Z" fill="#E0763B"/>
<path d="M31.4792 21.4891H16.4941V26.4841H31.4792V21.4891Z" fill="#E0763B"/>
</svg>
