<svg width="48" height="48" viewBox="0 0 48 48" fill="none" xmlns="http://www.w3.org/2000/svg">
<path fill-rule="evenodd" clip-rule="evenodd" d="M23.98 2H21.4759V4.50416H18.9717V9.49917H16.4675V6.995H11.4725V9.49917H8.96836V14.4942H11.4725V16.9983H6.50416V19.5025H4V24.4975H6.50416V27.0017H11.4992V29.5058H8.995V34.5008H11.4992V37.005H16.4942V34.5008H18.9983V39.4958H21.5025V42H26.4975V39.4958H29.0017V34.5008H31.5058V37.005H36.5008V34.5008H39.005V29.5058H36.5008V27.0017H41.4958V24.4975H44V19.5025H41.4958V16.9983H36.5008V14.4942H39.005V9.49917H36.5008V6.995H31.5058V9.49917H29.0017V4.50416H26.4975V2H23.9933H23.98ZM26.4842 4.50416V9.49917H28.9883V12.0033H31.4925V9.49917H36.4875V14.4942H33.9834V16.9983H36.4875V19.5025H41.4825V24.4975H36.4875V27.0017H33.9834V29.5058H36.4875V34.5008H31.4925V31.9967H28.9883V34.5008H26.4842V39.4958H21.4892V34.5008H18.985V31.9967H16.4809V34.5008H11.4858V29.5058H13.99V27.0017H11.4858V24.4975H6.50416V19.5025H11.4992V16.9983H14.0033V14.4942H11.4992V9.49917H16.4942V12.0033H18.9983V9.49917H21.5025V4.50416H26.4975H26.4842ZM21.4892 14.4942H26.4842V16.9983H21.4892V14.4942ZM18.985 19.4892V16.985H21.4892V19.4892H18.985ZM18.985 24.4842H16.4809V19.4892H18.985V24.4842ZM21.4892 26.9883H18.985V24.4842H21.4892V26.9883ZM26.4842 26.9883V29.4925H21.4892V26.9883H26.4842ZM28.9883 24.4842V26.9883H26.4842V24.4842H28.9883ZM28.9883 19.4892H31.4925V24.4842H28.9883V19.4892ZM28.9883 19.4892V16.985H26.4842V19.4892H28.9883Z" fill="#E0763B"/>
<path d="M26.4716 14.4941H21.4766V29.4792H26.4716V14.4941Z" fill="#E0763B"/>
<path d="M28.9744 16.985H18.9844V26.975H28.9744V16.985Z" fill="#E0763B"/>
<path d="M31.4792 19.4891H16.4941V24.4841H31.4792V19.4891Z" fill="#E0763B"/>
</svg>
