<svg width="11" height="11" viewBox="0 0 11 11" fill="none" xmlns="http://www.w3.org/2000/svg">
<path d="M5.50056 1C4.56317 1.00111 3.66449 1.37397 3.00166 2.03681C2.33882 2.69964 1.96595 3.59832 1.96485 4.53571C1.96372 5.30175 2.21395 6.047 2.67713 6.65714C2.67713 6.65714 2.77356 6.78411 2.78931 6.80243L5.50056 10L8.2131 6.80082C8.22724 6.78379 8.32399 6.65714 8.32399 6.65714L8.32431 6.65618C8.78727 6.0463 9.03737 5.3014 9.03628 4.53571C9.03517 3.59832 8.6623 2.69964 7.99947 2.03681C7.33663 1.37397 6.43795 1.00111 5.50056 1ZM5.50056 5.82143C5.24627 5.82143 4.99769 5.74602 4.78626 5.60475C4.57482 5.46347 4.41003 5.26267 4.31272 5.02774C4.2154 4.7928 4.18994 4.53429 4.23955 4.28488C4.28916 4.03548 4.41161 3.80639 4.59142 3.62658C4.77123 3.44677 5.00033 3.32431 5.24973 3.2747C5.49914 3.2251 5.75765 3.25056 5.99258 3.34787C6.22752 3.44518 6.42832 3.60998 6.56959 3.82141C6.71087 4.03284 6.78628 4.28142 6.78628 4.53571C6.78585 4.87658 6.65026 5.20336 6.40923 5.44438C6.1682 5.68541 5.84142 5.821 5.50056 5.82143Z" fill="#FCAF84"/>
</svg>
