<svg width="12" height="11" viewBox="0 0 12 11" fill="none" xmlns="http://www.w3.org/2000/svg">
<path fill-rule="evenodd" clip-rule="evenodd" d="M4.75716 0H7.81272V1.01852H4.75716V0ZM3.73785 1.01853H8.83044V2.03702H9.85135V3.05554H6.79579V2.03705H5.97938V3.05554H2.92383V2.03702H3.73785V1.01853ZM4.96087 3.05556H2.92383V4.07406V4.07408V5.09257H5.97938V4.07406H4.96087V3.05556ZM5.77626 5.09259H3.94314V5.90739V6.1111V6.92591H5.77626H6.9987H8.83181V6.1111V5.90739V5.09259H6.9987H5.77626ZM5.77785 6.92592H4.96007V7.94444H5.77785H6.99711H7.81489V6.92592H6.99711H5.77785ZM4.96007 7.94445H5.77785H6.99711H7.81489V8.96297H6.99711H6.89525V11H5.87674V8.96297H5.77785H4.96007V7.94445ZM9.85113 3.05556H7.81409V4.07406H6.79557V5.09257H9.85113V4.07408V4.07406V3.05556Z" fill="#FCAF84"/>
</svg>
