<?xml version="1.0" encoding="UTF-8"?><svg id="Layer_1" xmlns="http://www.w3.org/2000/svg" xmlns:xlink="http://www.w3.org/1999/xlink" viewBox="0 0 30 30"><defs><style>.cls-1{clip-path:url(#clippath);}.cls-2{fill:none;}.cls-2,.cls-3{stroke-width:0px;}.cls-3{fill:#e0763b;}</style><clipPath id="clippath"><rect class="cls-2" width="30" height="30"/></clipPath></defs><g class="cls-1"><path class="cls-3" d="m16.25,0h-2.5v5h2.5V0ZM0,13.75v2.5h5v-2.5H0Zm30,0v2.5h-5v-2.5h5Zm-13.75,16.25h-2.5v-5h2.5v5ZM10,7.5h10v2.5h-10v-2.5Zm-2.5,2.5h2.5v10h-2.5v-10Zm2.5,12.5v-2.5h10v2.5h-10Zm12.5-2.5h-2.5v-10h2.5v10Zm2.5-17.5h2.5v2.5h-2.5v-2.5Zm0,2.5v2.5h-2.5v-2.5h2.5Zm2.5,22.5h-2.5v-2.5h2.5v2.5Zm-2.5-2.5h-2.5v-2.5h2.5v2.5ZM5,2.5h-2.5v2.5h2.5v2.5h2.5v-2.5h-2.5v-2.5Zm-2.5,25h2.5v-2.5h2.5v-2.5h-2.5v2.5h-2.5v2.5Z"/></g></svg>