<svg width="48" height="48" viewBox="0 0 48 48" fill="none" xmlns="http://www.w3.org/2000/svg">
<path fill-rule="evenodd" clip-rule="evenodd" d="M23.982 5H21.7283V7.25375H19.4745V11.7493H17.2208V9.4955H12.7253V11.7493H10.4715V16.2448H12.7253V18.4985H8.25375V20.7522H6V25.2478H8.25375V27.5015H12.7493V29.7552H10.4955V34.2507H12.7493V36.5045H17.2448V34.2507H19.4985V38.7463H21.7522V41H26.2478V38.7463H28.5015V34.2507H30.7552V36.5045H35.2507V34.2507H37.5045V29.7552H35.2507V27.5015H39.7463V25.2478H42V20.7522H39.7463V18.4985H35.2507V16.2448H37.5045V11.7493H35.2507V9.4955H30.7552V11.7493H28.5015V7.25375H26.2478V5H23.994H23.982ZM26.2358 7.25375V11.7493H28.4895V14.003H30.7433V11.7493H35.2388V16.2448H32.985V18.4985H35.2388V20.7522H39.7343V25.2478H35.2388V27.5015H32.985V29.7552H35.2388V34.2507H30.7433V31.997H28.4895V34.2507H26.2358V38.7463H21.7403V34.2507H19.4865V31.997H17.2328V34.2507H12.7373V29.7552H14.991V27.5015H12.7373V25.2478H8.25375V20.7522H12.7493V18.4985H15.003V16.2448H12.7493V11.7493H17.2448V14.003H19.4985V11.7493H21.7522V7.25375H26.2478H26.2358ZM21.7403 16.2448H26.2358V18.4985H21.7403V16.2448ZM19.4865 20.7403V18.4865H21.7403V20.7403H19.4865ZM19.4865 25.2358H17.2328V20.7403H19.4865V25.2358ZM21.7403 27.4895H19.4865V25.2358H21.7403V27.4895ZM26.2358 27.4895V29.7433H21.7403V27.4895H26.2358ZM28.4895 25.2358V27.4895H26.2358V25.2358H28.4895ZM28.4895 20.7403H30.7433V25.2358H28.4895V20.7403ZM28.4895 20.7403V18.4865H26.2358V20.7403H28.4895Z" fill="#E0763B"/>
<path d="M26.2338 16.2446H21.7383V29.7311H26.2338V16.2446Z" fill="#E0763B"/>
<path d="M28.4871 18.4864H19.4961V27.4774H28.4871V18.4864Z" fill="#E0763B"/>
<path d="M30.7365 20.7402H17.25V25.2357H30.7365V20.7402Z" fill="#E0763B"/>
</svg>
