<svg width="217" height="216" viewBox="0 0 217 216" fill="none" xmlns="http://www.w3.org/2000/svg">
<path fill-rule="evenodd" clip-rule="evenodd" d="M108.41 18H97.1414V29.2687H85.8726V51.7463H74.6039V40.4775H52.1264V51.7463H40.8576V74.2238H52.1264V85.4925H29.7687V96.7612H18.5V119.239H29.7687V130.507H52.2463V141.776H40.9775V164.254H52.2463V175.522H74.7238V164.254H85.9925V186.731H97.2612V198H119.739V186.731H131.007V164.254H142.276V175.522H164.754V164.254H176.022V141.776H164.754V130.507H187.231V119.239H198.5V96.7612H187.231V85.4925H164.754V74.2238H176.022V51.7463H164.754V40.4775H142.276V51.7463H131.007V29.2687H119.739V18H108.47H108.41ZM119.679 29.2687V51.7463H130.948V63.015H142.216V51.7463H164.694V74.2238H153.425V85.4925H164.694V96.7612H187.171V119.239H164.694V130.507H153.425V141.776H164.694V164.254H142.216V152.985H130.948V164.254H119.679V186.731H97.2013V164.254H85.9326V152.985H74.6638V164.254H52.1863V141.776H63.455V130.507H52.1863V119.239H29.7687V96.7612H52.2463V85.4925H63.515V74.2238H52.2463V51.7463H74.7238V63.015H85.9925V51.7463H97.2612V29.2687H119.739H119.679ZM97.2013 74.2238H119.679V85.4925H97.2013V74.2238ZM85.9326 96.7013V85.4326H97.2013V96.7013H85.9326ZM85.9326 119.179H74.6638V96.7013H85.9326V119.179ZM97.2013 130.448H85.9326V119.179H97.2013V130.448ZM119.679 130.448V141.716H97.2013V130.448H119.679ZM130.948 119.179V130.448H119.679V119.179H130.948ZM130.948 96.7013H142.216V119.179H130.948V96.7013ZM130.948 96.7013V85.4326H119.679V96.7013H130.948Z" fill="#E0763B"/>
<path d="M119.638 74.2236H97.1602V141.656H119.638V74.2236Z" fill="#E0763B"/>
<path d="M130.9 85.4324H85.9453V130.387H130.9V85.4324Z" fill="#E0763B"/>
<path d="M142.163 96.7011H74.7305V119.179H142.163V96.7011Z" fill="#E0763B"/>
</svg>
