<svg width="24" height="24" viewBox="0 0 24 24" fill="none" xmlns="http://www.w3.org/2000/svg">
<path fill-rule="evenodd" clip-rule="evenodd" d="M12.0167 1.5H13.7667V5H12.0167V1.5ZM2.38672 12.88V11.13H5.88672V12.88H2.38672ZM23.3867 12.88V11.13H19.8867V12.88H23.3867ZM12.0067 22.5H13.7567V19H12.0067V22.5ZM7.63672 6.75V5H5.88672V3.25H4.13672V5H5.88672V6.75H7.63672ZM18.1367 6.75H19.8867V5H21.6367V3.25H19.8867V5H18.1367V6.75ZM19.8867 20.75H21.6367V19H19.8867V17.25H18.1367V19H19.8867V20.75ZM7.63672 17.25H5.88672V19H4.13672V20.75H5.88672V19H7.63672V17.25Z" fill="#E0763B"/>
<path d="M14.596 6.85999H11.166V17.15H14.596V6.85999Z" fill="#E0763B"/>
<path d="M16.3073 8.57996H9.44727V15.44H16.3073V8.57996Z" fill="#E0763B"/>
<path d="M18.0163 10.29H7.73633V13.72H18.0163V10.29Z" fill="#E0763B"/>
</svg>
